<mxfile host="app.diagrams.net" modified="2023-12-14T02:28:00.103Z" agent="Mozilla/5.0 (Macintosh; Intel Mac OS X 10_15_7) AppleWebKit/605.1.15 (KHTML, like Gecko) Version/17.2 Safari/605.1.15" etag="VYdykukp2GkKLb91zJbH" version="22.1.8" type="device">
  <diagram name="Page-1" id="J7h15daQUGbHgLGZUiPM">
    <mxGraphModel dx="929" dy="560" grid="1" gridSize="10" guides="1" tooltips="1" connect="1" arrows="1" fold="1" page="1" pageScale="1" pageWidth="850" pageHeight="1100" math="0" shadow="0">
      <root>
        <mxCell id="0" />
        <mxCell id="1" parent="0" />
        <mxCell id="QyL1Xv-_nFJHwNpOCTqJ-1" value="Quora" style="text;html=1;strokeColor=#6c8ebf;fillColor=#dae8fc;align=center;verticalAlign=middle;whiteSpace=wrap;rounded=0;fontSize=19;fontStyle=1" vertex="1" parent="1">
          <mxGeometry x="70" y="30" width="60" height="30" as="geometry" />
        </mxCell>
        <mxCell id="QyL1Xv-_nFJHwNpOCTqJ-2" value="&lt;div style=&quot;font-size: 16px;&quot;&gt;&lt;b&gt;&lt;font style=&quot;font-size: 16px;&quot;&gt;Requirements&lt;/font&gt;&lt;/b&gt;&lt;/div&gt;&lt;div style=&quot;font-size: 16px;&quot;&gt;&lt;b&gt;&lt;font style=&quot;font-size: 16px;&quot;&gt;Functional&amp;nbsp;&lt;/font&gt;&lt;/b&gt;&lt;/div&gt;&lt;div&gt;&lt;ul style=&quot;font-size: 16px;&quot;&gt;&lt;li&gt;&lt;font style=&quot;font-size: 16px;&quot;&gt;Post a question&lt;br&gt;&lt;/font&gt;&lt;/li&gt;&lt;li&gt;&lt;font style=&quot;font-size: 16px;&quot;&gt;Post an answer&lt;br&gt;&lt;/font&gt;&lt;/li&gt;&lt;li&gt;&lt;font style=&quot;font-size: 16px;&quot;&gt;&lt;span style=&quot;white-space: pre;&quot;&gt;Questions and Answers can have text, images, and video&lt;/span&gt;&lt;br&gt;&lt;/font&gt;&lt;/li&gt;&lt;li&gt;&lt;font style=&quot;font-size: 16px;&quot;&gt;&lt;span style=&quot;white-space: pre;&quot;&gt;Upvote and Downvote&lt;/span&gt;&lt;/font&gt;&lt;/li&gt;&lt;li&gt;&lt;font style=&quot;font-size: 16px;&quot;&gt;&lt;span style=&quot;white-space: pre;&quot;&gt;Dashboard&lt;/span&gt;&lt;/font&gt;&lt;/li&gt;&lt;/ul&gt;&lt;div style=&quot;font-size: 16px;&quot;&gt;&lt;span style=&quot;white-space: pre;&quot;&gt;&lt;b&gt;NonFunctional&lt;/b&gt;&lt;/span&gt;&lt;/div&gt;&lt;div&gt;&lt;ul&gt;&lt;li&gt;&lt;font size=&quot;3&quot;&gt;&lt;span style=&quot;white-space: pre;&quot;&gt;Available&lt;/span&gt;&lt;/font&gt;&lt;/li&gt;&lt;li&gt;&lt;font size=&quot;3&quot;&gt;&lt;span style=&quot;white-space: pre;&quot;&gt;Low Latency&lt;/span&gt;&lt;/font&gt;&lt;/li&gt;&lt;li&gt;&lt;font size=&quot;3&quot;&gt;&lt;span style=&quot;white-space: pre;&quot;&gt;Eventual Consistency&lt;/span&gt;&lt;/font&gt;&lt;/li&gt;&lt;/ul&gt;&lt;/div&gt;&lt;div style=&quot;font-size: 16px;&quot;&gt;&lt;span style=&quot;white-space: pre;&quot;&gt;&lt;br&gt;&lt;/span&gt;&lt;/div&gt;&lt;b style=&quot;font-size: 16px; white-space: pre;&quot;&gt;Assumptions&lt;/b&gt;&lt;br&gt;&lt;/div&gt;&lt;div&gt;&lt;ul&gt;&lt;li&gt;&lt;span style=&quot;white-space: pre;&quot;&gt;&lt;font size=&quot;3&quot;&gt;100 Million Users&lt;/font&gt;&lt;/span&gt;&lt;/li&gt;&lt;li&gt;&lt;font size=&quot;3&quot;&gt;&lt;span style=&quot;white-space: pre;&quot;&gt;DAU 10 Millions &lt;/span&gt;&lt;/font&gt;&lt;/li&gt;&lt;li&gt;&lt;font size=&quot;3&quot;&gt;&lt;span style=&quot;white-space: pre;&quot;&gt;Post - 1 MB - 1 PB&lt;/span&gt;&lt;/font&gt;&lt;/li&gt;&lt;li&gt;&lt;font size=&quot;3&quot;&gt;&lt;span style=&quot;white-space: pre;&quot;&gt;9 Answers&lt;/span&gt;&lt;/font&gt;&lt;/li&gt;&lt;li&gt;&lt;font size=&quot;3&quot;&gt;&lt;span style=&quot;white-space: pre;&quot;&gt;Read Heavy - 100:1 Reader/Writers&lt;/span&gt;&lt;/font&gt;&lt;/li&gt;&lt;/ul&gt;&lt;div&gt;&lt;br&gt;&lt;/div&gt;&lt;/div&gt;&lt;div&gt;&lt;font size=&quot;3&quot;&gt;&lt;span style=&quot;white-space: pre;&quot;&gt;&lt;b&gt;Constaints&lt;/b&gt;&lt;/span&gt;&lt;/font&gt;&lt;/div&gt;&lt;div&gt;&lt;ul&gt;&lt;li&gt;&lt;font size=&quot;3&quot;&gt;&lt;span style=&quot;white-space: pre;&quot;&gt;Time&lt;/span&gt;&lt;/font&gt;&lt;/li&gt;&lt;li&gt;&lt;font size=&quot;3&quot;&gt;&lt;span style=&quot;white-space: pre;&quot;&gt;Budget&lt;/span&gt;&lt;/font&gt;&lt;/li&gt;&lt;li&gt;&lt;font size=&quot;3&quot;&gt;&lt;span style=&quot;white-space: pre;&quot;&gt;Leading Edge/Good product&lt;/span&gt;&lt;/font&gt;&lt;/li&gt;&lt;li&gt;&lt;font size=&quot;3&quot;&gt;&lt;span style=&quot;white-space: pre;&quot;&gt;Technology&lt;/span&gt;&lt;/font&gt;&lt;/li&gt;&lt;li&gt;&lt;font size=&quot;3&quot;&gt;&lt;span style=&quot;white-space: pre;&quot;&gt;Resources&lt;/span&gt;&lt;/font&gt;&lt;/li&gt;&lt;/ul&gt;&lt;/div&gt;" style="text;html=1;strokeColor=none;fillColor=none;align=left;verticalAlign=middle;whiteSpace=wrap;rounded=0;labelPosition=center;verticalLabelPosition=middle;textDirection=ltr;" vertex="1" parent="1">
          <mxGeometry x="50" y="130" width="487" height="540" as="geometry" />
        </mxCell>
        <mxCell id="QyL1Xv-_nFJHwNpOCTqJ-3" value="Write" style="shape=umlActor;verticalLabelPosition=bottom;verticalAlign=top;html=1;outlineConnect=0;" vertex="1" parent="1">
          <mxGeometry x="733" y="185" width="30" height="60" as="geometry" />
        </mxCell>
        <mxCell id="QyL1Xv-_nFJHwNpOCTqJ-6" value="&lt;font style=&quot;font-size: 15px;&quot;&gt;User&lt;br&gt;&lt;/font&gt;" style="text;html=1;strokeColor=none;fillColor=none;align=center;verticalAlign=middle;whiteSpace=wrap;rounded=0;" vertex="1" parent="1">
          <mxGeometry x="730" y="95" width="60" height="30" as="geometry" />
        </mxCell>
        <mxCell id="QyL1Xv-_nFJHwNpOCTqJ-7" value="&lt;font style=&quot;font-size: 15px;&quot;&gt;MiddleLayer&lt;br&gt;Microservices&lt;br&gt;&lt;/font&gt;" style="text;html=1;strokeColor=none;fillColor=none;align=center;verticalAlign=middle;whiteSpace=wrap;rounded=0;" vertex="1" parent="1">
          <mxGeometry x="950" y="90" width="70" height="40" as="geometry" />
        </mxCell>
        <mxCell id="QyL1Xv-_nFJHwNpOCTqJ-8" value="&lt;font style=&quot;font-size: 15px;&quot;&gt;Persistent&lt;br&gt;&lt;/font&gt;" style="text;html=1;strokeColor=none;fillColor=none;align=center;verticalAlign=middle;whiteSpace=wrap;rounded=0;" vertex="1" parent="1">
          <mxGeometry x="1210" y="100" width="60" height="30" as="geometry" />
        </mxCell>
        <mxCell id="QyL1Xv-_nFJHwNpOCTqJ-9" value="&lt;font style=&quot;font-size: 15px;&quot;&gt;M/L Layer&lt;br&gt;&lt;/font&gt;" style="text;html=1;strokeColor=none;fillColor=none;align=center;verticalAlign=middle;whiteSpace=wrap;rounded=0;" vertex="1" parent="1">
          <mxGeometry x="1480" y="95" width="60" height="30" as="geometry" />
        </mxCell>
        <mxCell id="QyL1Xv-_nFJHwNpOCTqJ-10" value="" style="rounded=0;whiteSpace=wrap;html=1;" vertex="1" parent="1">
          <mxGeometry x="890" y="155" width="215" height="510" as="geometry" />
        </mxCell>
        <mxCell id="QyL1Xv-_nFJHwNpOCTqJ-11" value="Read" style="shape=umlActor;verticalLabelPosition=bottom;verticalAlign=top;html=1;outlineConnect=0;" vertex="1" parent="1">
          <mxGeometry x="745" y="525" width="30" height="60" as="geometry" />
        </mxCell>
        <mxCell id="QyL1Xv-_nFJHwNpOCTqJ-12" value="Posts" style="rounded=0;whiteSpace=wrap;html=1;" vertex="1" parent="1">
          <mxGeometry x="930" y="185" width="120" height="60" as="geometry" />
        </mxCell>
        <mxCell id="QyL1Xv-_nFJHwNpOCTqJ-13" value="Answers" style="rounded=0;whiteSpace=wrap;html=1;" vertex="1" parent="1">
          <mxGeometry x="930" y="305" width="120" height="60" as="geometry" />
        </mxCell>
        <mxCell id="QyL1Xv-_nFJHwNpOCTqJ-15" value="" style="rounded=0;whiteSpace=wrap;html=1;" vertex="1" parent="1">
          <mxGeometry x="1150" y="155" width="215" height="510" as="geometry" />
        </mxCell>
        <mxCell id="QyL1Xv-_nFJHwNpOCTqJ-16" value="&lt;b&gt;RDS&lt;/b&gt;&lt;br&gt;User&lt;br&gt;Post&lt;br&gt;Answer" style="shape=cylinder3;whiteSpace=wrap;html=1;boundedLbl=1;backgroundOutline=1;size=15;" vertex="1" parent="1">
          <mxGeometry x="1227.5" y="195" width="60" height="100" as="geometry" />
        </mxCell>
        <mxCell id="QyL1Xv-_nFJHwNpOCTqJ-17" value="&lt;b&gt;Object&lt;br&gt;Storage&lt;/b&gt;" style="shape=cylinder3;whiteSpace=wrap;html=1;boundedLbl=1;backgroundOutline=1;size=15;" vertex="1" parent="1">
          <mxGeometry x="1227.5" y="415" width="60" height="80" as="geometry" />
        </mxCell>
        <mxCell id="QyL1Xv-_nFJHwNpOCTqJ-18" value="" style="rounded=0;whiteSpace=wrap;html=1;" vertex="1" parent="1">
          <mxGeometry x="1420" y="155" width="215" height="510" as="geometry" />
        </mxCell>
        <mxCell id="QyL1Xv-_nFJHwNpOCTqJ-19" value="&lt;b&gt;NoSQL&lt;/b&gt;" style="shape=cylinder3;whiteSpace=wrap;html=1;boundedLbl=1;backgroundOutline=1;size=15;" vertex="1" parent="1">
          <mxGeometry x="1228" y="315" width="60" height="80" as="geometry" />
        </mxCell>
        <mxCell id="QyL1Xv-_nFJHwNpOCTqJ-21" value="Redis" style="shape=cylinder3;whiteSpace=wrap;html=1;boundedLbl=1;backgroundOutline=1;size=15;" vertex="1" parent="1">
          <mxGeometry x="1228" y="535" width="60" height="80" as="geometry" />
        </mxCell>
        <mxCell id="QyL1Xv-_nFJHwNpOCTqJ-22" value="Recommendation&lt;br&gt;Service" style="rounded=0;whiteSpace=wrap;html=1;" vertex="1" parent="1">
          <mxGeometry x="1457.5" y="535" width="120" height="60" as="geometry" />
        </mxCell>
        <mxCell id="QyL1Xv-_nFJHwNpOCTqJ-26" value="" style="shape=partialRectangle;whiteSpace=wrap;html=1;left=0;right=0;fillColor=none;" vertex="1" parent="1">
          <mxGeometry x="1320" y="585" width="120" height="20" as="geometry" />
        </mxCell>
        <mxCell id="QyL1Xv-_nFJHwNpOCTqJ-27" value="Dashboard" style="rounded=0;whiteSpace=wrap;html=1;" vertex="1" parent="1">
          <mxGeometry x="940" y="535" width="120" height="60" as="geometry" />
        </mxCell>
        <mxCell id="QyL1Xv-_nFJHwNpOCTqJ-28" value="" style="curved=1;endArrow=classic;html=1;rounded=0;edgeStyle=orthogonalEdgeStyle;" edge="1" parent="1" target="QyL1Xv-_nFJHwNpOCTqJ-10">
          <mxGeometry width="50" height="50" relative="1" as="geometry">
            <mxPoint x="790" y="225" as="sourcePoint" />
            <mxPoint x="840" y="175" as="targetPoint" />
            <Array as="points">
              <mxPoint x="840" y="225" />
              <mxPoint x="840" y="175" />
            </Array>
          </mxGeometry>
        </mxCell>
        <mxCell id="QyL1Xv-_nFJHwNpOCTqJ-29" value="" style="curved=1;endArrow=classic;html=1;rounded=0;edgeStyle=orthogonalEdgeStyle;" edge="1" parent="1">
          <mxGeometry width="50" height="50" relative="1" as="geometry">
            <mxPoint x="890" y="565" as="sourcePoint" />
            <mxPoint x="780" y="565" as="targetPoint" />
            <Array as="points">
              <mxPoint x="850" y="565" />
              <mxPoint x="850" y="515" />
              <mxPoint x="780" y="515" />
            </Array>
          </mxGeometry>
        </mxCell>
        <mxCell id="QyL1Xv-_nFJHwNpOCTqJ-30" value="" style="shape=partialRectangle;whiteSpace=wrap;html=1;left=0;right=0;fillColor=none;" vertex="1" parent="1">
          <mxGeometry x="1330" y="345" width="120" height="20" as="geometry" />
        </mxCell>
        <mxCell id="QyL1Xv-_nFJHwNpOCTqJ-31" value="" style="shape=partialRectangle;whiteSpace=wrap;html=1;left=0;right=0;fillColor=none;" vertex="1" parent="1">
          <mxGeometry x="1080" y="205" width="120" height="20" as="geometry" />
        </mxCell>
        <mxCell id="QyL1Xv-_nFJHwNpOCTqJ-32" value="" style="shape=partialRectangle;whiteSpace=wrap;html=1;left=0;right=0;fillColor=none;" vertex="1" parent="1">
          <mxGeometry x="1330" y="245" width="120" height="20" as="geometry" />
        </mxCell>
        <mxCell id="QyL1Xv-_nFJHwNpOCTqJ-33" value="" style="shape=partialRectangle;whiteSpace=wrap;html=1;left=0;right=0;fillColor=none;" vertex="1" parent="1">
          <mxGeometry x="1080" y="555" width="120" height="20" as="geometry" />
        </mxCell>
        <mxCell id="QyL1Xv-_nFJHwNpOCTqJ-36" value="&lt;b&gt;Monitoring and Logging&lt;/b&gt;" style="rounded=0;whiteSpace=wrap;html=1;" vertex="1" parent="1">
          <mxGeometry x="885" y="705" width="740" height="60" as="geometry" />
        </mxCell>
        <mxCell id="QyL1Xv-_nFJHwNpOCTqJ-37" value="Posts" style="rounded=0;whiteSpace=wrap;html=1;" vertex="1" parent="1">
          <mxGeometry x="940" y="195" width="120" height="60" as="geometry" />
        </mxCell>
        <mxCell id="QyL1Xv-_nFJHwNpOCTqJ-39" value="Answers" style="rounded=0;whiteSpace=wrap;html=1;" vertex="1" parent="1">
          <mxGeometry x="940" y="315" width="120" height="60" as="geometry" />
        </mxCell>
        <mxCell id="QyL1Xv-_nFJHwNpOCTqJ-40" value="Dashboard" style="rounded=0;whiteSpace=wrap;html=1;" vertex="1" parent="1">
          <mxGeometry x="950" y="545" width="120" height="60" as="geometry" />
        </mxCell>
        <mxCell id="QyL1Xv-_nFJHwNpOCTqJ-41" value="Recommendation&lt;br&gt;Service" style="rounded=0;whiteSpace=wrap;html=1;" vertex="1" parent="1">
          <mxGeometry x="1467.5" y="545" width="120" height="60" as="geometry" />
        </mxCell>
        <mxCell id="QyL1Xv-_nFJHwNpOCTqJ-42" value="Recommendation&lt;br&gt;Service" style="rounded=0;whiteSpace=wrap;html=1;" vertex="1" parent="1">
          <mxGeometry x="1477.5" y="555" width="120" height="60" as="geometry" />
        </mxCell>
        <mxCell id="QyL1Xv-_nFJHwNpOCTqJ-43" value="Recommendation&lt;br&gt;Service" style="rounded=0;whiteSpace=wrap;html=1;" vertex="1" parent="1">
          <mxGeometry x="1487.5" y="565" width="120" height="60" as="geometry" />
        </mxCell>
        <mxCell id="QyL1Xv-_nFJHwNpOCTqJ-44" value="Redis" style="shape=cylinder3;whiteSpace=wrap;html=1;boundedLbl=1;backgroundOutline=1;size=15;" vertex="1" parent="1">
          <mxGeometry x="1238" y="545" width="60" height="80" as="geometry" />
        </mxCell>
        <mxCell id="QyL1Xv-_nFJHwNpOCTqJ-45" value="Redis" style="shape=cylinder3;whiteSpace=wrap;html=1;boundedLbl=1;backgroundOutline=1;size=15;" vertex="1" parent="1">
          <mxGeometry x="1248" y="555" width="60" height="80" as="geometry" />
        </mxCell>
        <mxCell id="QyL1Xv-_nFJHwNpOCTqJ-46" value="&lt;b&gt;RDS&lt;/b&gt;&lt;br&gt;User&lt;br&gt;Post&lt;br&gt;Answer" style="shape=cylinder3;whiteSpace=wrap;html=1;boundedLbl=1;backgroundOutline=1;size=15;" vertex="1" parent="1">
          <mxGeometry x="1237.5" y="205" width="60" height="100" as="geometry" />
        </mxCell>
        <mxCell id="QyL1Xv-_nFJHwNpOCTqJ-47" value="&lt;b&gt;RDS&lt;/b&gt;&lt;br&gt;User&lt;br&gt;Post&lt;br&gt;Answer" style="shape=cylinder3;whiteSpace=wrap;html=1;boundedLbl=1;backgroundOutline=1;size=15;" vertex="1" parent="1">
          <mxGeometry x="1247.5" y="215" width="60" height="100" as="geometry" />
        </mxCell>
        <mxCell id="QyL1Xv-_nFJHwNpOCTqJ-48" value="&lt;b&gt;NoSQL&lt;/b&gt;" style="shape=cylinder3;whiteSpace=wrap;html=1;boundedLbl=1;backgroundOutline=1;size=15;" vertex="1" parent="1">
          <mxGeometry x="1238" y="325" width="60" height="80" as="geometry" />
        </mxCell>
        <mxCell id="QyL1Xv-_nFJHwNpOCTqJ-49" value="&lt;b&gt;NoSQL&lt;/b&gt;" style="shape=cylinder3;whiteSpace=wrap;html=1;boundedLbl=1;backgroundOutline=1;size=15;" vertex="1" parent="1">
          <mxGeometry x="1248" y="335" width="60" height="80" as="geometry" />
        </mxCell>
        <mxCell id="QyL1Xv-_nFJHwNpOCTqJ-50" value="&lt;b&gt;Object&lt;br&gt;Storage&lt;/b&gt;" style="shape=cylinder3;whiteSpace=wrap;html=1;boundedLbl=1;backgroundOutline=1;size=15;" vertex="1" parent="1">
          <mxGeometry x="1237.5" y="425" width="60" height="80" as="geometry" />
        </mxCell>
        <mxCell id="QyL1Xv-_nFJHwNpOCTqJ-51" value="&lt;b&gt;Object&lt;br&gt;Storage&lt;/b&gt;" style="shape=cylinder3;whiteSpace=wrap;html=1;boundedLbl=1;backgroundOutline=1;size=15;" vertex="1" parent="1">
          <mxGeometry x="1247.5" y="435" width="60" height="80" as="geometry" />
        </mxCell>
        <mxCell id="QyL1Xv-_nFJHwNpOCTqJ-52" value="LB" style="rounded=0;whiteSpace=wrap;html=1;" vertex="1" parent="1">
          <mxGeometry x="890" y="155" width="30" height="510" as="geometry" />
        </mxCell>
        <mxCell id="QyL1Xv-_nFJHwNpOCTqJ-53" value="Answers" style="rounded=0;whiteSpace=wrap;html=1;" vertex="1" parent="1">
          <mxGeometry x="930" y="405" width="120" height="60" as="geometry" />
        </mxCell>
        <mxCell id="QyL1Xv-_nFJHwNpOCTqJ-54" value="UpVote/DownVote" style="rounded=0;whiteSpace=wrap;html=1;" vertex="1" parent="1">
          <mxGeometry x="940" y="415" width="120" height="60" as="geometry" />
        </mxCell>
        <mxCell id="QyL1Xv-_nFJHwNpOCTqJ-55" value="" style="shape=partialRectangle;whiteSpace=wrap;html=1;left=0;right=0;fillColor=none;" vertex="1" parent="1">
          <mxGeometry x="1070" y="335" width="120" height="20" as="geometry" />
        </mxCell>
        <mxCell id="QyL1Xv-_nFJHwNpOCTqJ-56" value="" style="shape=partialRectangle;whiteSpace=wrap;html=1;left=0;right=0;fillColor=none;" vertex="1" parent="1">
          <mxGeometry x="1070" y="435" width="120" height="20" as="geometry" />
        </mxCell>
      </root>
    </mxGraphModel>
  </diagram>
</mxfile>
